<?xml version="1.0" encoding="utf-8"?>
<!-- Generator: Adobe Illustrator 28.3.0, SVG Export Plug-In . SVG Version: 6.00 Build 0)  -->
<svg width="24px" height="24px" version="1.1" id="Layer_1" xmlns="http://www.w3.org/2000/svg" xmlns:xlink="http://www.w3.org/1999/xlink" x="0px" y="0px"
	 viewBox="0 0 24 24" style="enable-background:new 0 0 24 24;" xml:space="preserve">
<path d="M7.1,2.2c0.5,0.4,0.5,1.1,0.1,1.6L3.8,7.5C3.6,7.7,3.3,7.9,3,7.9c-0.3,0-0.6-0.1-0.8-0.3L0.3,5.7c-0.4-0.4-0.4-1.2,0-1.6
	s1.2-0.4,1.6,0l1,1l2.6-2.9C6,1.8,6.7,1.7,7.1,2.2L7.1,2.2z M7.1,9.7c0.5,0.4,0.5,1.1,0.1,1.6L3.8,15c-0.2,0.2-0.5,0.4-0.8,0.4
	S2.4,15.3,2.2,15l-1.9-1.9c-0.4-0.4-0.4-1.2,0-1.6c0.4-0.4,1.2-0.4,1.6,0l1,1l2.6-2.9C6,9.3,6.7,9.3,7.1,9.7L7.1,9.7z M10.5,4.9
	c0-0.8,0.7-1.5,1.5-1.5h10.5C23.3,3.4,24,4,24,4.9s-0.7,1.5-1.5,1.5H12C11.2,6.4,10.5,5.7,10.5,4.9z M10.5,12.4
	c0-0.8,0.7-1.5,1.5-1.5h10.5c0.8,0,1.5,0.7,1.5,1.5c0,0.8-0.7,1.5-1.5,1.5H12C11.2,13.9,10.5,13.2,10.5,12.4z M7.5,19.9
	c0-0.8,0.7-1.5,1.5-1.5h13.5c0.8,0,1.5,0.7,1.5,1.5s-0.7,1.5-1.5,1.5H9C8.2,21.4,7.5,20.7,7.5,19.9z M2.3,17.6c1.2,0,2.2,1,2.2,2.2
	s-1,2.2-2.2,2.2S0,21.1,0,19.9S1,17.6,2.3,17.6z"/>
</svg>
